######## ######## ######## ##          ######## ########  ######## ######## 
##       ##       ##       ##          ##       ##     ## ##       ##       
##       ##       ##       ##          ##       ##     ## ##       ##       
######   ######   ######   ##          ######   ########  ######   ######   
##       ##       ##       ##          ##       ##   ##   ##       ##       
##       ##       ##       ##          ##       ##    ##  ##       ##       
##       ######## ######## ########    ##       ##     ## ######## ########

Genre:Comedy | Drama 
Language:English
IMDb: 
http://www.imdb.com/title/tt1578275/
Source:PPVRIP IFLIX Thanks!


Format : AVI
Format/Info : Audio Video Interleave
File size : 893 MiB
Duration : 1h 50mn
Overall bit rate : 1 130 Kbps


Video
ID : 0
Format : MPEG-4 Visual
Format profile : Advanced Simple@L5
Format settings, BVOP : Yes
Format settings, QPel : No
Format settings, GMC : No warppoints
Format settings, Matrix : Default (H.263)
Muxing mode : Packed bitstream
Codec ID : XVID
Codec ID/Hint : XviD
Duration : 1h 50mn
Bit rate : 988 Kbps
Width : 640 pixels
Height : 480 pixels
Display aspect ratio : 4:3
Frame rate : 29.970 fps
Color space : YUV
Chroma subsampling : 4:2:0
Bit depth : 8 bits
Scan type : Progressive
Bits/(Pixel*Frame) : 0.107
Stream size : 781 MiB (87%)
Writing library : XviD 1.2.1 (UTC 2008-12-04)

Audio
ID : 1
Format : MPEG Audio
Format version : Version 1
Format profile : Layer 3
Mode : Joint stereo
Mode extension : MS Stereo
Codec ID : 55
Codec ID/Hint : MP3
Duration : 1h 50mn
Bit rate mode : Constant
Bit rate : 128 Kbps
Channel(s) : 2 channels
Sampling rate : 44.1 KHz
Stream size : 101 MiB (11%)
Alignment : Aligned on interleaves
Interleave, duration : 26 ms (0.78 video frame)
Interleave, preload duration : 522 ms
Writing library : LAME3.98.2


Plot:
A man discovers that his best friend's wife is having an affair.

######## ######## ######## ##          ######## ########  ######## ######## 
##       ##       ##       ##          ##       ##     ## ##       ##       
##       ##       ##       ##          ##       ##     ## ##       ##       
######   ######   ######   ##          ######   ########  ######   ######   
##       ##       ##       ##          ##       ##   ##   ##       ##       
##       ##       ##       ##          ##       ##    ##  ##       ##       
##       ######## ######## ########    ##       ##     ## ######## ########